<svg width="79" xmlns="http://www.w3.org/2000/svg" height="79" id="screenshot-bea08533-2ee4-802c-8006-3a742da4e9a8" viewBox="0 0 79 79" xmlns:xlink="http://www.w3.org/1999/xlink" fill="none" version="1.1"><g id="shape-bea08533-2ee4-802c-8006-3a742da4e9a8" width="79" height="79" rx="0" ry="0" style="fill: rgb(0, 0, 0);"><g id="shape-bea08533-2ee4-802c-8006-3a742da6e3fd" style="display: none;"><g class="fills" id="fills-bea08533-2ee4-802c-8006-3a742da6e3fd"><rect width="79" height="79" x="0" transform="matrix(-1.000000, 0.000000, 0.000000, 1.000000, 79.000000, 0.000000)" style="fill: none;" ry="0" fill="none" rx="0" y="0"/></g></g><g id="shape-bea08533-2ee4-802c-8006-3a742da80f44"><g class="fills" id="fills-bea08533-2ee4-802c-8006-3a742da80f44"><path d="M13.522,44.644C15.047,44.083,16.504,43.725,17.794,43.581C22.037,39.552,27.769,37.076,34.068,37.076C38.996,37.076,43.576,38.592,47.368,41.181C52.983,40.764,57.698,36.546,58.656,30.918L58.665,30.917C59.418,26.797,62.627,23.676,66.521,23.617C71.030,23.548,78.037,27.583,78.618,32.626C79.453,39.866,72.995,39.970,67.305,39.969C64.717,44.800,60.512,48.591,55.476,50.682C56.913,53.733,57.718,57.137,57.718,60.726C57.718,63.836,55.198,66.357,52.087,66.357C48.976,66.357,46.456,63.836,46.456,60.726C46.456,57.439,45.167,54.450,43.071,52.230C39.586,51.690,37.865,50.351,37.346,48.782C36.278,48.487,35.176,48.338,34.068,48.338C27.238,48.338,21.680,53.895,21.680,60.726C21.680,63.836,19.160,66.357,16.049,66.357C12.938,66.357,10.418,63.836,10.418,60.726C10.418,58.033,10.871,55.444,11.704,53.031C6.577,52.209,0.524,49.777,0.353,47.659C0.130,44.908,4.649,47.910,13.522,44.644Z" style="fill: rgb(147, 200, 208);"/></g></g><g id="shape-bea08533-2ee4-802c-8006-3a742da87968"><g class="fills" id="fills-bea08533-2ee4-802c-8006-3a742da87968"><path d="M66.841,26.436C65.643,26.436,64.671,27.408,64.671,28.606L64.671,31.273C64.671,32.471,65.643,33.442,66.841,33.442C68.039,33.442,69.010,32.471,69.010,31.273L69.010,28.606C69.010,27.408,68.039,26.436,66.841,26.436Z" style="fill: rgb(44, 60, 71);"/></g></g><g id="shape-bea08533-2ee4-802c-8006-3a742da8f5c8"><g class="fills" id="fills-bea08533-2ee4-802c-8006-3a742da8f5c8"><path d="M16.514,37.215C16.548,37.146,16.579,37.079,16.614,37.009C20.316,29.525,26.075,25.974,27.281,26.902C28.253,27.651,26.342,27.833,24.398,35.256C26.320,34.945,28.338,34.723,30.427,34.604C31.463,30.307,32.982,26.757,34.068,26.757C35.154,26.757,36.674,30.307,37.709,34.604C39.798,34.723,41.816,34.945,43.738,35.256C41.795,27.833,39.883,27.651,40.855,26.902C42.061,25.974,47.820,29.525,51.523,37.009C51.557,37.079,51.589,37.146,51.622,37.215C58.245,39.545,62.499,43.163,62.499,47.227C62.499,54.255,49.770,59.953,34.068,59.953C18.366,59.953,5.637,54.255,5.637,47.227C5.637,43.163,9.891,39.545,16.514,37.215Z" style="fill: rgb(243, 200, 119);"/></g></g><g id="shape-bea08533-2ee4-802c-8006-3a742da9913b"><g class="fills" id="fills-bea08533-2ee4-802c-8006-3a742da9913b"><path d="M33.861,20.834L33.861,20.834ZC33.872,20.806,33.882,20.809,33.861,20.834ZC33.904,20.809,33.914,20.806,33.861,20.834ZL33.861,20.834ZC33.972,20.812,34.021,20.820,34.068,20.821C34.115,20.821,34.164,20.812,34.212,20.812L34.212,20.806C34.222,20.806,34.232,20.809,34.243,20.809C34.254,20.809,34.275,20.834,34.275,20.834C45.118,21.071,58.783,30.965,58.783,44.093C58.783,45.870,56.560,55.195,34.274,55.315L34.274,55.326C34.263,55.326,34.254,55.326,34.243,55.326C34.232,55.326,34.223,55.326,34.212,55.326L34.212,55.325C34.161,55.325,34.118,55.321,34.068,55.321C34.017,55.321,33.975,55.325,33.924,55.325L33.924,55.326C33.913,55.326,33.904,55.326,33.893,55.326C33.882,55.326,33.872,55.326,33.861,55.326L33.861,55.315C11.576,55.195,9.352,45.870,9.352,44.093C9.353,30.965,23.018,21.071,33.861,20.834ZM45.102,41.951C46.555,51.141,50.683,46.442,51.889,45.513C53.095,44.585,54.185,42.391,51.522,37.009C47.820,29.524,42.061,25.974,40.855,26.902C39.649,27.830,42.877,27.884,45.102,41.951ZM34.068,49.358C35.869,49.358,38.864,50.013,38.864,43.267C38.864,36.521,35.869,26.757,34.068,26.757C32.267,26.757,29.272,36.521,29.272,43.267C29.272,50.013,32.267,49.358,34.068,49.358ZM16.247,45.513C17.453,46.442,21.581,51.141,23.034,41.951C25.259,27.884,28.486,27.830,27.281,26.902C26.075,25.974,20.316,29.525,16.613,37.009C13.951,42.391,15.041,44.585,16.247,45.513Z" style="fill: rgb(202, 119, 33);"/></g></g></g></svg>