<svg xmlns="http://www.w3.org/2000/svg" width="181" height="293" viewBox="0 0 181 293" fill="none"><path d="M180.377 172.825C180.377 226.643 149.746 262.955 73.5001 262.955C29.0003 262.955 2.91461 226.643 2.91461 172.825C2.91461 119.008 47.3126 77.7208 91.8123 77.7208C136.312 77.7208 180.377 119.008 180.377 172.825Z" fill="#0ABF95"/><path d="M167.1 137.954C167.1 147.255 155.785 147.669 147.022 147.669C138.258 147.669 134.716 140.13 134.716 130.83C134.716 121.53 142.488 113.99 147.022 113.99C155.785 113.99 167.1 128.654 167.1 137.954Z" fill="#009572"/><path d="M37.1463 155.274C31.5064 162.669 22.2584 156.138 15.2901 150.823C8.3218 145.509 10.0774 137.366 15.7173 129.971C21.3572 122.576 32.1091 121.294 35.714 124.044C42.6823 129.358 42.7862 147.879 37.1463 155.274Z" fill="#009572"/><path d="M76.8342 263.838C71.8098 282.81 76.8342 291.329 54.1041 291.329C21.5773 291.329 20.2018 283.467 22.4237 263.838C24.6457 244.208 29.6764 224.697 41.1157 224.292C52.555 223.888 86.8255 226.111 76.8342 263.838Z" fill="#70D9FF"/><path d="M83.9137 256.12C89.6054 274.902 83.5702 293.045 111 291.5C146.5 289.5 145.167 282.5 141.233 256.12C138.319 236.581 130.223 216.936 100.753 219.85C89.3071 219.85 80.6753 245.433 83.9137 256.12Z" fill="#70D9FF"/><path d="M84.9008 250.808C79.6619 260.448 70.6338 261.561 50.279 250.74C32.1661 241.11 23.2988 229.815 28.5377 220.176C33.7766 210.536 50.6409 209.579 66.2052 218.038C81.7694 226.497 90.1398 241.169 84.9008 250.808Z" fill="#868686"/><path d="M79.3798 250.876C83.5983 260.743 92.108 262.732 112.361 254.298C130.383 246.793 139.733 236.744 135.514 226.876C131.296 217.009 115.31 214.383 99.8086 221.01C84.3076 227.638 75.1613 241.009 79.3798 250.876Z" fill="#868686"/><path d="M151.555 177.786C151.555 224.824 134.716 262.955 82.5782 262.955C46.4505 262.955 10.3626 224.824 10.3626 177.786C10.3626 130.749 39.1841 92.6173 82.5782 92.6173C125.972 92.6173 153.175 114.638 151.555 177.786Z" fill="#009572"/><path d="M145.12 188.149C145.12 229.106 127.309 256.155 81.6067 256.155C58.3316 256.155 17.1635 234.458 17.1635 194.626C17.1638 138.462 30.1163 97.151 81.6067 97.151C133.097 97.151 145.12 126.804 145.12 188.149Z" fill="#B7F5E7"/><path d="M69.3012 113.019C63.688 136.983 55.8296 198.901 69.3012 254.86" stroke="#009572" stroke-width="2"/><path d="M24.9355 156.413C37.6731 161.163 83.55 169.691 143.136 155.118" stroke="#009572" stroke-width="2"/><path d="M112.371 213.408C86.4644 219.885 58.6145 219.561 44.0418 213.408" stroke="#009572" stroke-width="2"/><path d="M103.304 99.966C103.304 108.193 91.8746 116.581 74.7303 116.581C60.2529 116.581 51.4903 109.912 51.4903 101.685C51.4903 93.4577 69.3965 86.7883 74.7303 86.7883C85.0405 86.7883 103.304 91.7389 103.304 99.966Z" fill="#009572"/><path d="M33.2069 72.5934C38.5211 119.379 73.6567 115.665 104.195 105.986C128.917 98.1504 143.46 80.6635 143.46 54.2026C143.46 27.7417 116.274 1.63279e-09 91.3761 1.63279e-09C54.0509 -0.000236307 27.8747 25.6497 33.2069 72.5934Z" fill="url(#paint0_linear_814_388)"/><path d="M33.2069 72.5934C38.5211 119.379 73.6567 115.665 104.195 105.986C128.917 98.1504 143.46 80.6635 143.46 54.2026C143.46 27.7417 116.274 1.63279e-09 91.3761 1.63279e-09C54.0509 -0.000236307 27.8747 25.6497 33.2069 72.5934Z" fill="#70D9FF"/><path d="M19.1893 71.6253C22.5426 97.7589 51.9352 110.72 65.508 111.688C78.3584 111.688 65.7246 86.8603 65.7246 71.6253C65.7246 56.3902 55.3073 44.0398 42.4569 44.0398C29.6066 44.0398 18.0094 62.4301 19.1893 71.6253Z" fill="url(#paint1_linear_814_388)"/><path d="M19.1893 71.6253C22.5426 97.7589 51.9352 110.72 65.508 111.688C78.3584 111.688 65.7246 86.8603 65.7246 71.6253C65.7246 56.3902 55.3073 44.0398 42.4569 44.0398C29.6066 44.0398 18.0094 62.4301 19.1893 71.6253Z" fill="#70D9FF"/><path d="M59.9709 75.0093L50.1885 76.6222C46.9316 77.1592 43.6195 76.0543 41.3372 73.6696L35.4044 67.4706" stroke="black" stroke-width="2" stroke-linecap="round"/><path d="M57.6289 75.4246L47.6006 77.6991C45.7073 78.1285 43.7366 77.4232 42.5458 75.89L38.5979 70.8071" stroke="black" stroke-width="2"/><ellipse cx="4.29128" cy="2.79556" rx="4.29128" ry="2.79556" transform="matrix(-0.880874 -0.473351 -0.473351 0.880874 39.564 52.7931)" fill="#12A7DD"/><ellipse cx="6.06487" cy="3.73223" rx="6.06487" ry="3.73223" transform="matrix(-0.999759 -0.0219409 -0.0219409 0.999759 90.6276 64.9496)" fill="#12A7DD"/><path d="M38.3967 42.3292C37.931 44.908 38.2111 47.3463 39.0147 49.1987C39.82 51.0549 41.1206 52.2686 42.6798 52.5502C44.239 52.8318 45.882 52.1496 47.2857 50.6924C48.6864 49.2381 49.8017 47.0518 50.2675 44.4731C50.7332 41.8943 50.4531 39.456 49.6495 37.6036C48.8442 35.7474 47.5436 34.5336 45.9844 34.252C44.4252 33.9705 42.7822 34.6526 41.3785 36.1099C39.9777 37.5641 38.8624 39.7505 38.3967 42.3292Z" fill="black" stroke="black"/><ellipse cx="2.33264" cy="3.2657" rx="2.33264" ry="3.2657" transform="matrix(-0.999759 -0.0219409 -0.0219409 0.999759 43.41 42.9143)" fill="white"/><ellipse cx="2.79917" cy="4.19876" rx="2.79917" ry="4.19876" transform="matrix(-0.999759 -0.0219409 -0.0219409 0.999759 50.0624 37.4607)" fill="white"/><path d="M59.7707 62.8724L57.2299 60.2684M57.2299 60.2684C53.2614 56.2012 47.0234 55.3816 42.139 58.2857M57.2299 60.2684L54.6241 57.8679C52.4393 55.7406 48.8061 55.1481 46.0182 56.3837L43.5548 57.5627" stroke="black" stroke-width="2" stroke-linecap="round"/><path d="M90.7694 53.7532C86.5989 52.4173 77.4872 50.8485 74.4038 55.2606C78.5948 55.6637 87.3334 57.2243 88.7604 60.2421" stroke="black" stroke-width="2" stroke-linecap="round"/><path d="M87.4837 54.6143C85.4107 53.8156 79.8129 52.2011 75.8131 54.8248" stroke="black" stroke-width="2" stroke-linecap="round"/><ellipse cx="2.56404" cy="3.98178" rx="2.56404" ry="3.98178" transform="matrix(-0.968393 0.249428 -0.251955 -0.967739 9.23959 199.418)" fill="#12A7DD"/><ellipse cx="2.54873" cy="3.17759" rx="2.54873" ry="3.17759" transform="matrix(-0.968393 0.249428 -0.251955 -0.967739 134.538 255.15)" fill="#12A7DD"/><ellipse cx="1.64333" cy="2.43468" rx="1.64333" ry="2.43468" transform="matrix(-0.998906 0.0467691 -0.0493765 -0.99878 73.0519 271.863)" fill="#12A7DD"/><ellipse cx="2.6377" cy="4.09616" rx="2.6377" ry="4.09616" transform="matrix(-0.999258 0.0385052 -0.0411136 -0.999155 71.6083 280.333)" fill="#12A7DD"/><ellipse cx="1.71029" cy="2.65597" rx="1.71029" ry="2.65597" transform="matrix(-0.968393 0.249428 -0.251955 -0.967739 136.651 250.141)" fill="#12A7DD"/><path d="M175.659 174.872C175.659 213.408 156.554 224.842 141.981 227.981C120.932 232.515 101.824 208.254 113.159 205.312C164.325 192.035 125.464 131.154 146.19 123.058C159.425 123.058 175.659 146.971 175.659 174.872Z" fill="#70D9FF"/><ellipse cx="1.90988" cy="3.28336" rx="1.90988" ry="3.28336" transform="matrix(0.999075 0.0430031 -0.0403949 0.999184 170.39 180)" fill="#12A7DD"/><ellipse cx="3.69688" cy="5.741" rx="3.69688" ry="5.741" transform="matrix(0.972654 0.232258 -0.229718 0.973257 165.638 185.829)" fill="#12A7DD"/><path d="M50.1947 206.932C58.9383 212.649 45.3371 227.009 24.2878 224.743C15.9164 223.841 0 212.437 0 178.434C0 162.337 13.5567 128.887 24.2878 128.887C46.3086 128.887 -0.323837 173.9 50.1947 206.932Z" fill="#70D9FF"/><ellipse cx="1.32464" cy="2.27724" rx="1.32464" ry="2.27724" transform="matrix(-0.903267 0.429078 -0.431435 -0.902144 8.21573 204.533)" fill="#12A7DD"/><ellipse cx="2.56404" cy="3.98178" rx="2.56404" ry="3.98178" transform="matrix(-0.968393 0.249428 -0.251955 -0.967739 9.23959 199.418)" fill="#12A7DD"/><defs><linearGradient id="paint0_linear_814_388" x1="81.283" y1="0" x2="81.283" y2="112.048" gradientUnits="userSpaceOnUse"><stop stop-color="#53D1FF"/><stop offset="1" stop-color="#9AFFE7"/></linearGradient><linearGradient id="paint1_linear_814_388" x1="81.283" y1="0" x2="81.283" y2="112.048" gradientUnits="userSpaceOnUse"><stop stop-color="#53D1FF"/><stop offset="1" stop-color="#9AFFE7"/></linearGradient></defs></svg>