<svg width="68" xmlns="http://www.w3.org/2000/svg" height="68" id="screenshot-bea08533-2ee4-802c-8006-3a770099ddf5" viewBox="0 0 68 68" xmlns:xlink="http://www.w3.org/1999/xlink" fill="none" version="1.1"><g id="shape-bea08533-2ee4-802c-8006-3a770099ddf5" width="18" height="18" rx="0" ry="0" style="fill: rgb(0, 0, 0);"><g id="shape-bea08533-2ee4-802c-8006-3a77009c4c0e" style="display: none;"><g class="fills" id="fills-bea08533-2ee4-802c-8006-3a77009c4c0e"><rect width="68" height="68" x="0" transform="matrix(1.000000, 0.000000, 0.000000, 1.000000, 0.000000, 0.000000)" style="fill: none;" ry="0" fill="none" rx="0" y="0"/></g></g><g id="shape-bea08533-2ee4-802c-8006-3a77009cd03e"><g class="fills" id="fills-bea08533-2ee4-802c-8006-3a77009cd03e"><ellipse cx="34" cy="57.6866666666665" rx="34" ry="10.124444444444407" transform="matrix(1.000000, 0.000000, 0.000000, 1.000000, 0.000000, 0.000000)" style="fill: rgb(59, 136, 195);"/></g></g><g id="shape-bea08533-2ee4-802c-8006-3a77009d5c03"><g class="fills" id="fills-bea08533-2ee4-802c-8006-3a77009d5c03"><path d="M63.869,53.905C63.869,56.958,59.147,58.792,36.514,58.792C15.878,58.792,10.803,56.958,10.803,53.905C10.803,50.853,21.537,48.378,36.514,48.378C51.491,48.378,63.869,50.853,63.869,53.905Z" style="fill: rgb(136, 201, 249);"/></g></g><g id="shape-bea08533-2ee4-802c-8006-3a77009dbfa4"><g class="fills" id="fills-bea08533-2ee4-802c-8006-3a77009dbfa4"><path d="M13.222,53.361C13.222,51.472,15.111,43.917,34.000,43.917C56.667,43.917,62.333,51.472,62.333,53.361C62.333,55.250,62.333,57.139,35.889,57.139C13.222,57.139,13.222,55.250,13.222,53.361Z" style="fill: rgb(244, 144, 12);"/></g></g><g id="shape-bea08533-2ee4-802c-8006-3a77009e3d42"><g class="fills" id="fills-bea08533-2ee4-802c-8006-3a77009e3d42"><path d="M38.949,52.260C38.665,53.569,37.373,54.400,36.064,54.116C34.754,53.831,33.924,52.540,34.208,51.230L43.809,2.148C43.968,1.276,44.589,0.560,45.430,0.281C46.271,0.001,47.197,0.203,47.846,0.806C48.495,1.409,48.764,2.318,48.546,3.177Z" style="fill: rgb(102, 117, 127);"/></g></g><g id="shape-bea08533-2ee4-802c-8006-3a77009e4e76"><g class="fills" id="fills-bea08533-2ee4-802c-8006-3a77009e4e76"><path d="M46.010,3.451C31.612,0.327,17.946,6.989,15.485,18.332C15.485,18.332,14.799,21.490,16.380,21.834C17.960,22.177,21.805,19.703,21.805,19.703L61.298,28.275C61.298,28.275,63.771,32.121,65.352,32.464C66.933,32.808,67.617,29.648,67.617,29.648C70.080,18.303,60.405,6.575,46.010,3.451Z" style="fill: rgb(221, 46, 68);"/></g></g><g id="shape-bea08533-2ee4-802c-8006-3a77009eb5d8"><g class="fills" id="fills-bea08533-2ee4-802c-8006-3a77009eb5d8"><path d="M46.010,3.451C35.103,1.084,24.267,8.360,21.805,19.701C21.805,19.701,21.120,22.861,24.280,23.547C27.440,24.234,32.865,22.102,32.865,22.102L50.241,25.874C50.241,25.874,54.294,30.062,57.454,30.749C60.614,31.433,61.298,28.273,61.298,28.273C63.759,16.932,56.914,5.818,46.010,3.451Z" style="fill: rgb(255, 232, 182);"/></g></g><g id="shape-bea08533-2ee4-802c-8006-3a77009eecd4"><g class="fills" id="fills-bea08533-2ee4-802c-8006-3a77009eecd4"><path d="M46.010,3.451C40.337,2.221,35.324,10.761,32.863,22.102C32.863,22.102,36.916,26.291,40.075,26.975L41.656,27.321C44.816,28.005,50.239,25.874,50.239,25.874C52.702,14.533,51.682,4.683,46.010,3.451Z" style="fill: rgb(221, 46, 68);"/></g></g><g id="shape-bea08533-2ee4-802c-8006-3a77009eecd5"><g class="fills" id="fills-bea08533-2ee4-802c-8006-3a77009eecd5"><path d="M29.928,52.791C30.813,51.984,33.233,52.175,34.650,51.654C36.066,51.132,36.952,50.469,38.133,50.943C39.313,51.417,39.667,52.128,40.789,52.224C41.911,52.320,42.736,52.983,42.264,53.505C41.792,54.026,38.072,54.215,35.594,54.215C33.116,54.215,28.834,53.788,29.928,52.791Z" style="fill: rgb(255, 172, 51);"/></g></g></g></svg>