<svg width="68" xmlns="http://www.w3.org/2000/svg" height="68" id="screenshot-bea08533-2ee4-802c-8006-3a77ed7df1fe" viewBox="0 0 68 68" xmlns:xlink="http://www.w3.org/1999/xlink" fill="none" version="1.1"><g id="shape-bea08533-2ee4-802c-8006-3a77ed7df1fe" width="16" height="16" rx="0" ry="0" style="fill: rgb(0, 0, 0);"><g id="shape-bea08533-2ee4-802c-8006-3a77ed7e985c" style="display: none;"><g class="fills" id="fills-bea08533-2ee4-802c-8006-3a77ed7e985c"><rect width="51.597595372175874" height="49.59298801291027" x="0" transform="matrix(1.000000, 0.000000, 0.000000, 1.000000, 0.000000, 0.000000)" style="fill: none;" ry="0" fill="none" rx="0" y="0"/></g></g><g id="shape-bea08533-2ee4-802c-8006-3a77ed7e985d" rx="0" ry="0" style="fill: rgb(0, 0, 0);"><g id="shape-bea08533-2ee4-802c-8006-3a77ed7ef7e9"><g class="fills" id="fills-bea08533-2ee4-802c-8006-3a77ed7ef7e9"><path d="M33.442,29.476C33.442,29.476,34.421,26.648,36.731,24.873C39.042,23.099,60.455,30.701,60.455,30.701C60.455,30.701,64.196,31.982,66.408,35.381C67.895,37.667,68.727,41.045,67.150,45.126C63.393,54.843,53.646,53.718,51.106,53.165C49.913,52.904,47.007,52.165,47.007,52.165C47.007,52.165,40.367,57.434,32.378,53.394C26.294,50.318,27.049,45.718,27.049,45.718C27.049,45.718,22.953,41.781,24.727,36.300C26.863,29.698,33.442,29.476,33.442,29.476Z" style="fill: rgb(91, 152, 33);"/></g></g><g id="shape-bea08533-2ee4-802c-8006-3a77ed7f1d44"><g class="fills" id="fills-bea08533-2ee4-802c-8006-3a77ed7f1d44"><path d="M47.297,41.236C52.839,40.348,54.569,38.074,56.072,35.967C57.728,33.642,57.286,31.692,58.439,31.638C59.592,31.584,60.511,33.583,59.245,37.075C57.456,42.011,53.775,42.735,53.702,44.064C53.646,45.118,57.620,45.191,61.208,43.509C66.405,41.069,66.405,35.355,66.405,35.355C66.405,35.355,65.481,33.521,63.691,32.247C61.901,30.972,60.571,30.305,60.571,30.305C60.571,30.305,58.434,22.595,48.741,21.317C39.045,20.038,35.057,26.536,35.057,26.536C35.057,26.536,35.404,28.644,37.078,31.085C38.411,33.033,39.790,32.971,39.674,34.079C39.598,34.800,37.191,35.021,34.651,33.967C32.337,33.007,31.765,31.692,31.131,31.692C30.498,31.692,25.251,34.502,27.439,40.456C29.172,45.172,34.901,46.056,35.925,46.226C38.929,46.725,40.657,44.839,38.521,43.339C36.385,41.840,34.017,40.952,34.538,39.457C35.098,37.837,37.099,39.527,39.501,40.526C41.875,41.513,44.750,41.647,47.297,41.236Z" style="fill: rgb(139, 192, 43);"/></g></g><g id="shape-bea08533-2ee4-802c-8006-3a77ed7f7faf"><g class="fills" id="fills-bea08533-2ee4-802c-8006-3a77ed7f7faf"><path d="M36.276,47.420C36.276,47.420,37.607,47.345,38.155,47.195C38.703,47.043,39.445,46.594,39.445,46.594C39.445,46.594,44.584,51.762,45.116,52.196C45.635,52.619,46.249,46.178,46.249,46.178C46.249,46.178,47.422,46.353,48.518,46.187C49.353,46.066,50.168,45.843,50.945,45.524C50.945,45.524,50.243,49.489,49.969,50.992C49.795,51.956,49.735,54.637,49.735,54.637L45.978,57.643L43.120,55.799C43.120,55.799,43.112,55.075,42.689,54.583C41.375,53.056,36.276,47.420,36.276,47.420ZM49.381,56.256L52.238,52.948C52.238,52.948,53.254,53.022,54.000,53.022C54.742,53.022,56.035,52.870,56.035,52.870C56.035,52.870,53.691,55.915,52.436,57.419C51.183,58.922,49.542,60.805,49.542,60.805L47.978,56.442Z" style="fill: rgb(109, 75, 65);"/></g></g><g id="shape-bea08533-2ee4-802c-8006-3a77ed7f9b9b"><g class="fills" id="fills-bea08533-2ee4-802c-8006-3a77ed7f9b9b"><path d="M47.349,53.622C46.180,53.723,43.124,55.802,43.124,55.802C43.124,55.802,43.281,59.336,43.165,61.332C43.049,63.328,42.230,66.586,42.984,67.410C43.637,68.123,49.128,68.259,49.945,67.430C50.767,66.601,49.969,63.176,49.969,60.955C49.969,58.735,49.735,54.637,49.735,54.637C49.735,54.637,48.679,53.510,47.349,53.622Z" style="fill: rgb(134, 91, 80);"/></g></g></g></g></svg>