<svg width="68" xmlns="http://www.w3.org/2000/svg" height="68" id="screenshot-bea08533-2ee4-802c-8006-3a77e07a17cd" viewBox="0 0 68 68" xmlns:xlink="http://www.w3.org/1999/xlink" fill="none" version="1.1"><g id="shape-bea08533-2ee4-802c-8006-3a77e07a17cd" width="16" height="16" rx="0" ry="0" style="fill: rgb(0, 0, 0);"><g id="shape-bea08533-2ee4-802c-8006-3a77e07c56c4" style="display: none;"><g class="fills" id="fills-bea08533-2ee4-802c-8006-3a77e07c56c4"><rect width="68" height="68" x="0" transform="matrix(1.000000, 0.000000, 0.000000, 1.000000, 0.000000, 0.000000)" style="fill: none;" ry="0" fill="none" rx="0" y="0"/></g></g><g id="shape-bea08533-2ee4-802c-8006-3a77e07c814c" rx="0" ry="0" style="fill: rgb(0, 0, 0);"><g id="shape-bea08533-2ee4-802c-8006-3a77e07c814d"><g class="fills" id="fills-bea08533-2ee4-802c-8006-3a77e07c814d"><path d="M46.788,22.106C46.788,22.106,63.516,19.216,64.489,20.485C65.461,21.756,65.705,25.579,65.184,27.742C64.657,29.909,62.713,33.252,57.029,34.822C52.254,36.140,50.649,36.146,48.180,37.619C46.208,38.792,43.346,47.239,42.893,48.439C42.443,49.640,39.153,54.347,32.275,53.374C25.553,52.417,21.431,46.113,22.854,39.908C24.278,33.703,46.786,22.104,46.788,22.106Z" style="fill: rgb(169, 40, 19);"/></g></g><g id="shape-bea08533-2ee4-802c-8006-3a77e07d4b9c"><g class="fills" id="fills-bea08533-2ee4-802c-8006-3a77e07d4b9c"><path d="M34.595,37.587C34.595,37.587,25.245,37.810,22.327,34.744C19.410,31.677,16.348,24.873,15.523,19.412C14.699,13.951,12.006,10.736,10.738,9.913C9.467,9.089,8.156,8.866,8.007,9.690C7.858,10.512,10.168,13.264,10.589,14.550C11.634,17.765,11.056,25.245,11.932,28.688C12.829,32.211,13.541,33.416,15.523,35.717C17.000,37.432,19.337,39.083,19.337,39.083C19.337,39.083,10.291,41.251,7.746,38.558C5.200,35.866,5.504,33.624,5.727,32.502C5.950,31.382,7.746,28.316,7.225,28.012C6.698,27.714,3.411,30.256,2.964,33.622C2.518,36.988,3.630,39.797,5.508,41.852C7.958,44.525,12.597,44.976,15.289,44.752C17.984,44.529,20.693,43.648,20.693,43.648C20.693,43.648,20.619,54.638,15.381,54.564C11.416,54.506,10.965,53.221,10.593,52.545C10.221,51.869,9.834,51.312,10.030,53.459C10.164,54.878,11.826,59.256,17.043,58.134C21.462,57.184,24.197,53.119,25.103,51.871C26.095,50.505,28.390,47.381,28.390,47.381C28.390,47.381,27.504,53.454,27.695,57.751C27.774,59.549,28.241,63.761,31.535,65.180C34.822,66.598,39.032,64.823,39.780,61.982C40.530,59.139,39.015,57.551,38.788,57.328C38.558,57.103,37.517,60.541,37.517,60.541C37.517,60.541,34.822,62.337,33.777,61.068C32.731,59.797,34.000,49.923,34.149,47.830C34.298,45.736,36.465,47.755,37.213,48.801C37.963,49.846,39.179,52.445,41.030,54.262C44.079,57.264,47.387,58.565,52.088,58.204C56.986,57.825,60.048,55.905,61.689,53.439C63.336,50.968,63.691,48.520,63.166,48.072C62.639,47.626,59.054,51.946,58.304,52.541C57.556,53.140,50.076,52.541,49.030,52.541C47.983,52.541,47.759,50.671,47.759,50.671C47.759,50.671,52.020,49.551,53.518,48.429C55.016,47.307,59.128,44.950,59.426,38.256C59.655,33.093,59.426,19.231,59.950,16.989C60.477,14.748,62.471,12.850,62.018,12.102C61.568,11.352,59.574,12.601,59.277,12.824C58.979,13.047,55.834,14.546,55.760,17.238C55.686,19.932,54.789,39.153,53.291,40.719C51.791,42.292,46.931,45.432,44.242,45.061C41.548,44.695,34.595,37.587,34.595,37.587Z" style="fill: rgb(255, 168, 168);"/></g></g><g id="shape-bea08533-2ee4-802c-8006-3a77e07e176c"><g class="fills" id="fills-bea08533-2ee4-802c-8006-3a77e07e176c"><path d="M62.942,47.983C62.046,47.908,61.296,49.104,60.397,49.778C59.498,50.452,57.704,52.169,52.991,52.020C48.278,51.871,45.139,46.707,45.139,46.707C45.139,46.707,46.640,46.856,48.354,46.410C50.076,45.964,52.806,44.502,54.523,41.401C56.567,37.712,56.111,28.613,56.132,24.571C56.157,18.987,57.974,16.016,58.678,15.073C59.872,13.451,61.767,12.527,61.844,12.006C61.916,11.479,59.472,11.783,58.076,12.606C56.525,13.519,55.760,14.550,55.760,14.550C55.760,14.550,52.169,14.178,50.224,14.178C48.280,14.178,44.544,14.465,41.289,15.226C37.287,16.161,34.298,18.439,33.475,18.594C33.475,18.594,30.819,15.952,26.446,18.966C21.881,22.104,25.175,28.762,25.175,28.762C25.175,28.762,24.954,29.724,23.758,30.033C22.036,30.479,19.459,28.800,18.524,25.808C17.737,23.286,17.924,19.788,17.181,15.751C16.430,11.713,14.263,9.917,12.319,9.021C10.374,8.122,7.905,8.946,8.281,9.467C8.653,9.992,11.496,10.965,13.218,14.104C14.939,17.244,14.114,24.576,15.984,29.807C17.854,35.041,21.297,36.762,21.297,36.762C21.297,36.762,19.352,37.659,18.307,37.882C17.259,38.106,14.418,38.632,11.798,38.091C9.074,37.527,7.236,35.530,6.938,33.324C6.683,31.450,7.909,28.167,7.236,28.012C6.560,27.859,4.148,31.301,4.074,34.142C3.999,36.986,6.188,40.275,9.477,41.845C12.765,43.418,19.650,41.994,19.650,41.994C19.650,41.994,19.087,42.857,19.012,44.502C18.938,46.151,17.967,49.831,16.207,50.898C15.003,51.631,13.929,51.871,13.551,50.898C13.179,49.927,15.087,49.555,15.013,48.582C14.939,47.611,13.366,47.366,11.872,48.284C10.863,48.900,9.180,51.127,10.225,53.518C11.273,55.909,13.870,56.755,16.734,55.989C21.006,54.846,25.936,46.941,27.504,45.592C29.076,44.249,30.122,44.621,30.122,44.621C30.122,44.621,29.372,51.574,29.521,56.287C29.669,60.998,32.683,64.075,36.029,63.544C39.769,62.943,39.992,59.876,39.398,58.231C38.873,56.791,36.890,56.249,36.333,56.659C35.604,57.194,36.089,58.076,36.369,58.321C37.045,58.901,36.482,60.248,35.434,59.946C34.389,59.649,35.360,56.132,35.806,54.411C36.253,52.689,37.304,48.652,38.499,48.354C39.695,48.057,40.913,50.156,42.018,51.421C43.909,53.588,46.990,55.271,51.383,55.346C57.190,55.446,60.786,51.865,61.610,50.968C62.418,50.076,63.835,48.057,62.942,47.983ZM49.474,32.353C50.470,31.654,51.541,31.069,52.668,30.611C52.668,30.611,52.717,36.741,50.373,39.908C48.435,42.525,46.559,41.926,46.559,41.926C46.559,41.926,48.486,40.874,48.652,38.862C48.875,36.093,45.959,35.572,45.959,35.572C45.959,35.572,47.978,33.394,49.474,32.353Z" style="fill: rgb(255, 97, 94);"/></g></g><g id="shape-bea08533-2ee4-802c-8006-3a77e07e176d"><g class="fills" id="fills-bea08533-2ee4-802c-8006-3a77e07e176d"><path d="M59.549,28.651C59.549,28.651,65.705,26.818,65.104,22.327C64.502,17.837,59.968,16.845,59.968,16.845C59.968,16.845,59.319,19.189,59.419,22.255C59.468,23.598,59.547,28.651,59.549,28.651Z" style="fill: rgb(255, 97, 94);"/></g></g><g id="shape-bea08533-2ee4-802c-8006-3a77e07e8c6a"><g class="fills" id="fills-bea08533-2ee4-802c-8006-3a77e07e8c6a"><path d="M46.501,40.162C45.815,41.257,44.646,41.486,43.796,40.955C42.946,40.424,42.814,39.355,43.499,38.261C44.185,37.166,45.588,36.673,46.442,37.205C47.296,37.736,47.186,39.068,46.501,40.162ZM34.706,33.734C35.662,33.677,35.343,32.725,35.152,31.456C34.965,30.186,34.274,26.845,36.235,24.835C37.880,23.152,39.933,23.173,41.467,24.161C42.625,24.911,43.152,25.209,43.597,24.650C43.894,24.278,43.448,23.566,42.700,22.929C41.750,22.121,38.477,20.457,35.407,23.003C32.504,25.411,32.972,30.069,33.350,31.679C33.732,33.288,34.104,33.773,34.706,33.734ZM25.315,18.662C23.371,20.680,22.973,22.295,23.186,25.022C23.371,27.455,24.231,29.319,25.166,28.949C25.946,28.634,25.613,27.189,25.351,26.441C25.092,25.691,24.639,22.100,26.548,20.156C28.456,18.211,30.623,18.470,31.594,18.694C32.566,18.917,32.976,19.140,33.465,18.583C33.953,18.024,32.938,17.121,31.966,16.898C30.995,16.675,27.886,15.995,25.315,18.662Z" style="fill: rgb(165, 41, 20);"/></g></g><g id="shape-bea08533-2ee4-802c-8006-3a77e07e8c6b"><g class="fills" id="fills-bea08533-2ee4-802c-8006-3a77e07e8c6b"><path d="M43.569,30.632C43.569,32.183,42.404,33.741,40.874,33.660C39.376,33.586,38.671,32.141,38.671,30.596C38.671,29.049,39.567,27.791,41.140,27.678C42.931,27.551,43.569,29.081,43.569,30.632Z" style="fill: rgb(44, 43, 45);"/></g></g><g id="shape-bea08533-2ee4-802c-8006-3a77e07fef52"><g class="fills" id="fills-bea08533-2ee4-802c-8006-3a77e07fef52"><path d="M58.890,25.398C58.946,25.098,58.880,24.788,58.707,24.537C58.534,24.286,58.268,24.114,57.968,24.059C57.666,24.018,57.360,24.099,57.118,24.283C56.876,24.468,56.717,24.741,56.676,25.043C56.561,25.666,56.973,26.265,57.596,26.380C57.898,26.421,58.204,26.341,58.447,26.157C58.689,25.973,58.849,25.700,58.890,25.398ZM59.738,18.148C59.961,17.553,59.723,16.915,59.207,16.722C58.690,16.528,58.091,16.849,57.868,17.444C57.645,18.037,57.883,18.677,58.399,18.868C58.916,19.063,59.515,18.740,59.738,18.148ZM57.779,34.967C58.548,34.953,59.161,34.319,59.149,33.550C59.162,32.779,58.549,32.144,57.779,32.130C57.008,32.144,56.395,32.779,56.408,33.550C56.408,34.331,57.022,34.967,57.779,34.967ZM57.753,42.498C58.083,41.752,57.781,40.894,57.080,40.583C56.376,40.271,55.539,40.624,55.210,41.370C54.876,42.113,55.178,42.972,55.881,43.282C56.582,43.594,57.422,43.244,57.753,42.498ZM58.835,55.883C59.404,55.641,59.689,55.031,59.472,54.521C59.256,54.011,58.618,53.792,58.049,54.034C57.479,54.277,57.192,54.889,57.411,55.399C57.628,55.909,58.265,56.126,58.835,55.883ZM51.839,57.881C52.541,57.881,53.110,57.345,53.110,56.684C53.110,56.024,52.541,55.490,51.839,55.490C51.138,55.490,50.569,56.024,50.569,56.684C50.569,57.343,51.138,57.881,51.839,57.881ZM45.018,56.652C45.706,56.639,46.253,56.070,46.240,55.382C46.252,54.694,45.705,54.127,45.018,54.113C44.330,54.127,43.783,54.696,43.796,55.384C43.796,56.085,44.342,56.652,45.018,56.652ZM32.353,65.482C32.701,65.486,33.036,65.351,33.284,65.108C33.532,64.865,33.674,64.533,33.677,64.186C33.674,63.838,33.532,63.506,33.284,63.263C33.036,63.020,32.701,62.885,32.353,62.889C32.006,62.885,31.671,63.020,31.422,63.263C31.174,63.506,31.033,63.838,31.029,64.186C31.029,64.902,31.624,65.482,32.353,65.482ZM28.549,57.955C29.059,57.921,29.433,57.339,29.387,56.659C29.340,55.977,28.889,55.452,28.379,55.486C27.869,55.520,27.495,56.102,27.542,56.782C27.589,57.466,28.039,57.991,28.549,57.955ZM22.412,55.386C22.969,54.872,23.048,54.054,22.589,53.558C22.130,53.063,21.309,53.078,20.753,53.592C20.198,54.105,20.117,54.923,20.576,55.420C21.035,55.917,21.856,55.900,22.412,55.386ZM15.051,58.756C15.808,58.756,16.420,58.197,16.420,57.509C16.420,56.818,15.808,56.259,15.049,56.259C14.293,56.259,13.681,56.818,13.681,57.507C13.681,58.197,14.293,58.756,15.051,58.756ZM13.653,44.891C14.329,44.891,14.875,44.402,14.875,43.796C14.875,43.193,14.329,42.702,13.653,42.702C12.977,42.702,12.431,43.191,12.431,43.796C12.431,44.400,12.977,44.891,13.653,44.891ZM8.430,42.593C8.581,42.321,8.618,42.000,8.531,41.701C8.445,41.401,8.242,41.149,7.969,41.000C7.703,40.838,7.384,40.790,7.082,40.864C6.780,40.939,6.520,41.131,6.360,41.397C6.209,41.669,6.172,41.991,6.259,42.290C6.345,42.589,6.548,42.842,6.821,42.991C7.087,43.152,7.406,43.201,7.708,43.127C8.010,43.052,8.270,42.860,8.430,42.593ZM4.078,38.435C4.588,38.239,4.815,37.600,4.588,37.009C4.360,36.418,3.763,36.095,3.253,36.293C2.743,36.491,2.516,37.126,2.743,37.717C2.971,38.310,3.568,38.630,4.078,38.435ZM13.387,28.577C13.705,28.571,14.008,28.439,14.228,28.210C14.449,27.980,14.569,27.673,14.563,27.355C14.569,27.037,14.449,26.730,14.228,26.501C14.008,26.272,13.705,26.139,13.387,26.133C13.070,26.139,12.767,26.272,12.547,26.501C12.326,26.730,12.206,27.037,12.212,27.355C12.212,28.029,12.739,28.577,13.387,28.577ZM12.735,21.554C13.368,21.554,13.883,21.018,13.883,20.358C13.889,20.047,13.772,19.746,13.557,19.522C13.342,19.298,13.046,19.169,12.735,19.163C12.424,19.169,12.129,19.298,11.913,19.522C11.698,19.746,11.581,20.047,11.588,20.358C11.588,21.016,12.100,21.554,12.735,21.554ZM12.183,15.177C12.707,14.973,12.952,14.340,12.729,13.764C12.503,13.186,11.896,12.882,11.371,13.086C10.846,13.290,10.602,13.923,10.827,14.501C11.050,15.077,11.656,15.381,12.183,15.177Z" style="fill: rgb(252, 212, 176);"/></g></g></g></g></svg>