<svg width="68" xmlns="http://www.w3.org/2000/svg" height="72" id="screenshot-bea08533-2ee4-802c-8006-3a77d1821eda" viewBox="0 0 68 72" xmlns:xlink="http://www.w3.org/1999/xlink" fill="none" version="1.1"><g id="shape-bea08533-2ee4-802c-8006-3a77d1821eda" width="16" height="16" rx="0" ry="0" style="fill: rgb(0, 0, 0);"><g id="shape-bea08533-2ee4-802c-8006-3a77d1848060" style="display: none;"><g class="fills" id="fills-bea08533-2ee4-802c-8006-3a77d1848060"><rect width="60.44444444444434" height="52.36363636363649" x="0" transform="matrix(1.000000, 0.000000, 0.000000, 1.000000, 0.000000, 0.000000)" style="fill: none;" ry="0" fill="none" rx="0" y="19.636363636363512"/></g></g><g id="shape-bea08533-2ee4-802c-8006-3a77d1848061" rx="0" ry="0" style="fill: rgb(0, 0, 0);"><g id="shape-bea08533-2ee4-802c-8006-3a77d1852a16"><defs><radialGradient cx="0" cy="0" r="1" id="render-4-a" gradientTransform="matrix(1.888889, 0.000000, 0.000000, 1.636364, 7.555556, -0.000000) translate(14.963 -.351)scale(28.4267)" gradientUnits="userSpaceOnUse"><stop offset=".423" stop-color="#45D6F0"/><stop offset=".518" stop-color="#41CDE9"/><stop offset=".674" stop-color="#37B4D7"/><stop offset=".87" stop-color="#278BBA"/><stop offset="1" stop-color="#1B6DA4"/></radialGradient></defs><g class="fills" id="fills-bea08533-2ee4-802c-8006-3a77d1852a16"><path d="M14.478,47.348C15.126,47.782,16.991,44.989,24.017,44.615C31.541,44.215,39.865,49.397,51.268,49.397C61.379,49.397,66.615,45.110,66.258,44.427C66.017,43.974,62.027,43.139,57.437,41.073C51.916,38.589,46.104,36.101,41.659,30.510C38.811,26.931,36.782,22.808,39.582,19.576C42.377,16.342,49.479,17.836,49.479,17.836L39.799,8.766L21.369,13.119L12.042,33.374L13.048,43.688Z" fill="url(#render-4-a)" style="fill: url(&quot;#render-4-a&quot;);"/></g></g><g id="shape-bea08533-2ee4-802c-8006-3a77d1858d44"><g class="fills" id="fills-bea08533-2ee4-802c-8006-3a77d1858d44"><path d="M35.539,14.773C35.539,14.773,37.793,15.395,40.809,16.756C45.828,19.026,48.869,22.598,51.973,22.819C55.193,23.043,56.842,21.436,56.138,18.082C55.480,14.951,50.150,11.278,50.150,11.278C50.150,11.278,55.020,12.073,55.020,9.655C55.020,7.172,52.394,5.976,48.261,4.745C45.509,3.927,38.103,2.111,28.178,5.367C23.910,6.766,18.696,9.352,14.737,14.307C9.562,20.787,8.513,29.214,9.495,35.612C10.685,43.339,14.397,47.324,14.488,47.356C14.578,47.389,15.064,38.270,19.214,34.315C22.752,30.944,26.369,32.326,30.666,32.141C35.734,31.925,37.995,27.393,34.128,23.937C30.808,20.967,25.307,21.232,25.307,21.232C25.307,21.232,27.130,20.602,30.591,20.332C34.567,20.016,35.351,18.016,35.634,17.267C36.261,15.614,35.539,14.773,35.539,14.773Z" style="fill: rgb(27, 109, 164);"/></g></g><g id="shape-bea08533-2ee4-802c-8006-3a77d185f421"><g class="fills" id="fills-bea08533-2ee4-802c-8006-3a77d185f421"><path d="M25.570,14.850C25.305,13.500,29.895,12.281,34.705,12.935C42.185,13.953,48.106,19.865,50.618,20.729C54.321,22.006,55.624,19.383,53.767,16.544C51.856,13.610,46.793,11.114,46.980,10.145C47.320,8.422,52.505,11.045,52.823,9.131C53.036,7.863,49.164,6.038,45.484,5.223C42.525,4.569,36.304,3.764,27.710,7.007C16.537,11.234,11.705,19.640,10.908,28.448C10.153,36.802,13.836,43.028,13.836,43.028C13.836,43.028,14.085,36.794,17.693,33.361C20.328,30.857,23.709,29.916,27.379,30.521C33.499,31.536,36.168,27.704,33.226,24.933C31.299,23.122,28.828,22.557,26.274,22.484C21.858,22.361,19.484,23.641,19.355,23.207C19.167,22.549,21.562,21.022,24.597,19.926C28.592,18.486,33.414,19.473,34.170,16.576C34.538,15.164,33.617,14.392,30.983,14.223C27.653,14.015,25.589,14.948,25.570,14.850Z" style="fill: rgb(255, 255, 255);"/></g></g><g id="shape-bea08533-2ee4-802c-8006-3a77d185f422"><defs fill="none" style="fill: rgb(0, 0, 0);"/></g></g></g></svg>